<svg xmlns="http://www.w3.org/2000/svg" fill="none" viewBox="0 0 64 64" id="Pokeball--Streamline-Kameleon" height="64" width="64">
  <desc>
    Pokeball Streamline Icon: https://streamlinehq.com
  </desc>
  <path fill="#deeeff" d="M31.9972 63.995733333333334c17.673066666666664 0 31.999866666666666 -14.3268 31.999866666666666 -31.999866666666666 0 -17.672933333333333 -14.3268 -31.999772919999998 -31.999866666666666 -31.999772919999998S-0.00260416 14.322933333333333 -0.00260416 31.995866666666664c0 17.673066666666664 14.326737493333333 31.999866666666666 31.99980416 31.999866666666666Z" stroke-width="1.3333"></path>
  <path fill="#2e3ecd" d="M31.99693333333333 50.61373333333333c10.282533333333333 0 18.618133333333333 -8.3356 18.618133333333333 -18.618 0 -10.282533333333333 -8.3356 -18.618133333333333 -18.618133333333333 -18.618133333333333 -10.282399999999999 0 -18.618 8.3356 -18.618 18.618133333333333 0 10.282399999999999 8.3356 18.618 18.618 18.618Z" stroke-width="1.3333"></path>
  <path fill="#6bafff" d="M31.99693333333333 25.013733333333334c-3.0388 0 -5.6168 1.9444 -6.5756 4.6544h-11.892266666666666c-0.09546666666666666 0.7628 -0.15013333333333334 1.5383999999999998 -0.15013333333333334 2.3273333333333333 0 0.7889333333333333 0.05466666666666667 1.5645333333333333 0.15013333333333334 2.3272h11.892266666666666c0.9593333333333334 2.7101333333333333 3.537466666666666 4.654533333333333 6.5756 4.654533333333333 3.038266666666667 0 5.616933333333333 -1.9444 6.575733333333333 -4.654533333333333h11.892266666666666c0.09546666666666666 -0.7626666666666666 0.15013333333333334 -1.5382666666666664 0.15013333333333334 -2.3272 0 -0.7889333333333333 -0.05466666666666667 -1.5645333333333333 -0.15013333333333334 -2.3273333333333333h-11.892266666666666c-0.9587999999999999 -2.71 -3.5368 -4.6544 -6.575733333333333 -4.6544Z" stroke-width="1.3333"></path>
  <path fill="#2e3ecd" d="M31.997466666666668 35.48573333333333c1.9278666666666666 0 3.4908 -1.562933333333333 3.4908 -3.490933333333333s-1.562933333333333 -3.490933333333333 -3.4908 -3.490933333333333c-1.928 0 -3.490933333333333 1.562933333333333 -3.490933333333333 3.490933333333333s1.562933333333333 3.490933333333333 3.490933333333333 3.490933333333333Z" stroke-width="1.3333"></path>
</svg>